<?xml version="1.0" encoding="utf-8"?>
<!-- Generator: Adobe Illustrator 26.0.0, SVG Export Plug-In . SVG Version: 6.00 Build 0)  -->
<svg version="1.1" id="Layer_1" xmlns="http://www.w3.org/2000/svg" xmlns:xlink="http://www.w3.org/1999/xlink" x="0px" y="0px"
	 viewBox="0 0 31 32.3" style="enable-background:new 0 0 31 32.3;" xml:space="preserve">
<style type="text/css">
	.st0{fill:#FFFFFF;}
</style>
<path class="st0" d="M6.8,0C4.1,0.1,2.2,1.9,0.6,3.6C-0.2,4.4,0,4.9,0,6.5C0,8.7,0,9,0.6,9.9c1.3,2.2,3.7,3.5,6.2,3.6
	c4.2,0.3,7.8-3,7.8-6.8S11-0.1,6.8,0z M3,8.8c0,0.4-0.3,0.7-0.7,0.7C2,9.5,1.6,9.2,1.6,8.8c0,0,0,0,0,0v-4c0-0.4,0.3-0.7,0.7-0.7
	S3,4.4,3,4.8L3,8.8z M11,6.8c0,0.6-0.5,1-1,1H7.7c-0.6,0-1-0.5-1-1V6.7c0-0.6,0.5-1,1-1H10c0.6,0,1,0.5,1,1L11,6.8z M7.2,14.9
	c1.9,0.1,3.7-0.4,5.2-1.4v17c-0.1,1-0.9,1.7-1.9,1.8H8.8c-0.8-0.1-1.4-0.7-1.5-1.5C7.2,30.7,7.2,15,7.2,14.9z M16.3,6.8
	c0,3.7,3.6,7.1,7.8,6.8c2.6-0.1,4.9-1.4,6.2-3.6C31,9,30.9,8.7,30.9,6.5c0-1.6,0.2-2.2-0.5-2.9c-1.6-1.7-3.5-3.5-6.3-3.6
	C19.9-0.1,16.3,3,16.3,6.8L16.3,6.8z M27.7,4.8c0-0.4,0.3-0.7,0.7-0.7S29,4.4,29,4.8v4c0,0.4-0.3,0.7-0.7,0.7s-0.7-0.3-0.7-0.7l0,0
	V4.8z M19.9,6.7c0-0.6,0.5-1,1-1h2.2c0.6,0,1,0.5,1,1v0.1c0,0.6-0.5,1-1,1H21c-0.6,0-1-0.5-1-1L19.9,6.7z M23.6,30.7
	c0,0.7-1.1,1.5-1.8,1.5H20c-0.9-0.1-1.6-0.9-1.6-1.8v-17c1.5,1.1,3.3,1.6,5.2,1.4C23.6,15,23.6,30.7,23.6,30.7L23.6,30.7z"/>
</svg>
