<?xml version="1.0" encoding="utf-8"?>
<!-- Generator: Adobe Illustrator 26.0.0, SVG Export Plug-In . SVG Version: 6.00 Build 0)  -->
<svg version="1.1" id="Layer_1" xmlns="http://www.w3.org/2000/svg" xmlns:xlink="http://www.w3.org/1999/xlink" x="0px" y="0px"
	 viewBox="0 0 30 43" style="enable-background:new 0 0 30 43;" xml:space="preserve">
<path d="M28.7,0H1.4C0.6,0.1,0,0.7,0,1.5v40.2C0,42.4,0.6,43,1.4,43l0,0h27.3c0.7,0,1.3-0.6,1.3-1.3l0,0l0,0V1.5
	C30,0.7,29.5,0.1,28.7,0z M15,1.4c0.4,0,0.7,0.3,0.7,0.7S15.4,2.7,15,2.7S14.3,2.4,14.3,2l0,0l0,0C14.3,1.7,14.6,1.4,15,1.4z
	 M15,41.9c-0.6,0-1.1-0.5-1.1-1.1s0.5-1.1,1.1-1.1s1.1,0.5,1.1,1.1l0,0l0,0C16.1,41.5,15.6,41.9,15,41.9L15,41.9z M28,39H2V4h26V39z
	"/>
</svg>
