<?xml version="1.0" encoding="utf-8"?>
<!-- Generator: Adobe Illustrator 26.0.0, SVG Export Plug-In . SVG Version: 6.00 Build 0)  -->
<svg version="1.1" id="Layer_1" xmlns="http://www.w3.org/2000/svg" xmlns:xlink="http://www.w3.org/1999/xlink" x="0px" y="0px"
	 viewBox="0 0 38 47" style="enable-background:new 0 0 38 47;" xml:space="preserve">
<style type="text/css">
	.st0{fill:#FFFFFF;}
</style>
<path class="st0" d="M15.7,47H5.1H4.7c-0.1,0-0.2,0-0.3,0c-0.5,0-1,0-1.5-0.1c-0.3-0.1-0.7-0.2-1-0.3c-0.6-0.3-1.1-0.8-1.4-1.4
	c-0.2-0.3-0.3-0.6-0.3-1C0,43.5,0,43,0,42.4v-0.3c0-0.1,0-0.1,0-0.2V9.1C0,9,0,8.9,0,8.8c0-0.1,0-0.2,0-0.3C0,8,0,7.4,0.1,6.9
	c0.1-0.3,0.2-0.7,0.3-1c0.3-0.6,0.8-1.1,1.4-1.4c0.3-0.2,0.6-0.3,1-0.3C3.2,4,3.6,4,4,4c0.3,0,0.6,0,0.9,0h0.2H14c0,0.2,0,0.4,0,0.6
	v0.2v0.1V5H5.1H5H4.9C4.6,5,4.2,5,4,5C3.7,5,3.4,5,3.1,5.1c-0.3,0-0.5,0.1-0.7,0.2c-0.4,0.2-0.8,0.6-1,1C1.2,6.6,1.1,6.8,1.1,7.1
	C1,7.6,1,8.1,1,8.6v0.3v0.2v32.8v0.2v0.3c0,0.5,0,1,0.1,1.5c0,0.3,0.1,0.5,0.2,0.7c0.2,0.4,0.6,0.8,1,1c0.2,0.1,0.5,0.2,0.7,0.2
	C3.5,46,4,46,4.4,46l0.3,0h0.4h9.7C15,46.4,15.3,46.7,15.7,47L15.7,47z M12.6,5.6c0.5,0,0.9,0.4,0.9,0.9s-0.4,0.9-0.9,0.9H8.4
	C7.9,7.4,7.5,7,7.5,6.5s0.4-0.9,0.9-0.9H12.6z M12.6,6c-0.2,0-0.4,0.2-0.4,0.4s0.2,0.4,0.4,0.4c0.2,0,0.4-0.2,0.4-0.4l0,0
	C13.1,6.2,12.9,6,12.6,6z M29.5,2.5c0,0.5-0.4,0.9-0.9,0.9h-4.2c-0.5,0-0.9-0.4-0.9-0.9s0.4-0.9,0.9-0.9l0,0h4.2
	C29.1,1.6,29.5,2,29.5,2.5z M29.1,2.5c0-0.2-0.2-0.5-0.5-0.5c-0.2,0-0.4,0.2-0.4,0.4s0.2,0.4,0.4,0.5S29.1,2.7,29.1,2.5L29.1,2.5z
	 M38,4.9v37.3c0,0.1,0,0.2,0,0.3c0,0.6,0,1.1-0.1,1.7c-0.1,0.3-0.2,0.7-0.3,1c-0.3,0.6-0.8,1.1-1.4,1.4c-0.3,0.2-0.6,0.3-1,0.3
	C34.8,46.9,34.4,47,34,47c-0.3,0-0.6,0-0.9,0h-0.2H20.1h-0.4c-0.1,0-0.2,0-0.3,0c-0.4,0-0.8,0-1.3-0.1c-0.1,0-0.2,0-0.3,0
	c-0.3-0.1-0.7-0.2-1-0.3c-0.3-0.1-0.5-0.3-0.8-0.5c0,0,0,0-0.1-0.1c-0.2-0.2-0.5-0.5-0.6-0.8c-0.2-0.3-0.3-0.6-0.3-1
	C15,43.5,15,43,15,42.4c0-0.1,0-0.2,0-0.3V4.9c0-0.1,0-0.2,0-0.3c0-0.2,0-0.4,0-0.6c0-0.4,0-0.7,0.1-1.1c0.1-0.3,0.2-0.7,0.3-1
	c0.3-0.6,0.8-1.1,1.4-1.4c0.3-0.2,0.6-0.3,1-0.3C18.3,0,18.6,0,19,0c0.3,0,0.6,0,0.9,0h0.2h12.8h0.2h0.2c0.1,0,0.2,0,0.3,0
	c0.5,0,1,0,1.5,0.1c0.3,0.1,0.7,0.2,1,0.3c0.6,0.3,1.1,0.8,1.4,1.4c0.2,0.3,0.3,0.6,0.3,1C38,3.4,38,4,38,4.6L38,4.9z M37,4.9V4.7
	V4.6c0-0.5,0-1-0.1-1.5c0-0.3-0.1-0.5-0.2-0.7c-0.2-0.4-0.6-0.8-1-1c-0.2-0.1-0.5-0.2-0.7-0.2C34.5,1,34,1,33.6,1l-0.3,0h-0.2H33
	H20.1H20h-0.1c-0.3,0-0.6,0-0.9,0c-0.3,0-0.6,0-0.9,0.1c-0.3,0-0.5,0.1-0.7,0.2c-0.4,0.2-0.8,0.6-1,1c-0.1,0.2-0.2,0.5-0.2,0.7
	C16,3.4,16,3.7,16,4c0,0.2,0,0.4,0,0.6v0.1v0.1v37.3v0.1v0.1c0,0.5,0,1,0.1,1.5c0,0.3,0.1,0.5,0.2,0.7c0.2,0.4,0.6,0.8,1,1
	c0.2,0.1,0.5,0.2,0.7,0.2c0,0,0,0,0.1,0C18.6,46,19,46,19.4,46l0.3,0h0.4H33h0.1c0.3,0,0.6,0,0.9,0c0.3,0,0.6,0,0.9-0.1
	c0.3,0,0.5-0.1,0.7-0.2c0.4-0.2,0.8-0.6,1-1c0.1-0.2,0.2-0.5,0.2-0.7c0.1-0.5,0.1-1,0.1-1.5v-0.1v-0.2V4.9z"/>
</svg>
