<?xml version="1.0" encoding="utf-8"?>
<!-- Generator: Adobe Illustrator 26.0.0, SVG Export Plug-In . SVG Version: 6.00 Build 0)  -->
<svg version="1.1" id="Layer_1" xmlns="http://www.w3.org/2000/svg" xmlns:xlink="http://www.w3.org/1999/xlink" x="0px" y="0px"
	 viewBox="0 0 350 188.8" style="enable-background:new 0 0 350 188.8;" xml:space="preserve">
<style type="text/css">
	.st0{fill:#FFFFFF;}
</style>
<g>
	<path class="st0" d="M58.6,179.9v-5.6H36.6c0-0.6,0-147.7,0-152.1c0-2.8,0-5,0-6.1c0-1.2,0-2.2,0-2.8s0-1.6,0-2.2
		c0,0,0.6-0.6,0.6-1.2l0.6-0.6c0-0.6,0.6-0.6,0.6-0.6c0-0.6,0.6-0.6,1.2-0.6c0.6,0,1.6,0,2.2,0c0.6,0,1.6,0,2.8,0c1.6,0,3.3,0,6.1,0
		h7.2h87.7c0,3.3,2.2,5.6,5.6,5.6h20.1c3.3,0,5.6-2.2,5.6-5.6h87.7h7.2c2.8,0,5,0,6.1,0c1.2,0,2.2,0,2.8,0c0.6,0,1.6,0,2.2,0
		c0,0,0.6,0.6,1.2,0.6c0.6,0,1.2,0.6,1.2,1.2c0.6,0,0.6,0.6,0.6,1.2c0,0.6,0,1.6,0,2.2s0,1.6,0,2.8c0,1.6,0,3.3,0,6.1
		c0,0.6,0,4.4,0,10.6h8.3c0-6.1,0-9.9,0-10.6c0-2.8,0-5,0-6.1c0-1.2,0-2.2,0-2.8c0-1.2,0-2.2,0-3.3c0-1.6-0.6-2.8-1.2-3.9
		c-1.2-2.2-2.8-3.9-5-5c-1.2-0.6-2.8-1.2-3.8-1.2c-1.2,0-2.2,0-3.3,0c-0.6,0-1.6,0-2.8,0c-1.6,0-3.3,0-6.1,0c-1.6,0-3.8,0-7.2,0
		H57.6c-2.8,0-5.6,0-7.2,0c-2.8,0-5,0-6.1,0c-1.6,0-2.2,0-3.3,0s-2.2,0-3.3,0.6c-1.6,0-2.8,0.6-3.9,1.2c-2.2,1.2-3.9,2.8-5,5
		c-0.6,1.2-1.2,2.8-1.2,3.9c0,1.2,0,2.2,0,3.3c0,0.6,0,1.6,0,2.8s0,3.3,0,6.1c0,3.9,0,152.1,0,152.1H0v5.6c0,4.4,3.9,8.3,8.3,8.3H68
		C68.1,188.8,60.7,186.8,58.6,179.9z"/>
	<path class="st0" d="M322.3,172.1v-125c0-4.4-3.3-8.3-8.3-8.3H103c-4.4,0-8.3,3.3-8.3,8.3v125H67v7.8c3.9,6.1,23.3,8.9,30.5,8.9
		h220.4c7.2,0,28.8-3.3,32.2-8.9v-7.8H322.3z M311.3,172.1H105.8V49.9h205.4V172.1L311.3,172.1z"/>
</g>
</svg>
