<?xml version="1.0" encoding="utf-8"?>
<!-- Generator: Adobe Illustrator 26.0.0, SVG Export Plug-In . SVG Version: 6.00 Build 0)  -->
<svg version="1.1" id="Layer_1" xmlns="http://www.w3.org/2000/svg" xmlns:xlink="http://www.w3.org/1999/xlink" x="0px" y="0px"
	 viewBox="0 0 28 46" style="enable-background:new 0 0 28 46;" xml:space="preserve">
<style type="text/css">
	.st0{fill:#FFFFFF;}
</style>
<path class="st0" d="M7.7,41.3h11c0,0.8-0.1,1.5-0.1,2.2H7.8C7.8,42.8,7.7,42.1,7.7,41.3z M7.9,44.6c0,0.5,0.1,1,0.1,1.4h10.4
	c0-0.4,0.1-0.8,0.1-1.4c0-0.1,0-0.2,0-0.4H7.9C7.9,44.4,7.9,44.5,7.9,44.6L7.9,44.6z M27.3,23.1v0.9c0.4,0.1,0.7,0.5,0.7,0.9v4.5
	c0,0.4-0.3,0.8-0.7,0.9v0.7l-0.5,0c-0.2,0-0.5,0.1-0.6,0.3c-0.1,0.1-0.1,0.3-0.2,0.4v0c-0.3,1.1-0.8,2.1-1.5,3
	c-0.3,0.5-0.7,1-1.1,1.5c-0.2,0.2-0.3,0.4-0.3,0.6c0,0.1,0,0.3-0.1,0.4c0,0.4-0.1,0.7-0.1,0.7c0,0.8-0.7,1.5-1.5,1.6h-0.2L21.1,44
	c-0.1,0.2-0.1,0.5-0.9,0.5h-0.7c0.1-1.3,0.2-3,0.3-4.7c0-0.2,0-0.5,0-0.7c0-0.4,0-0.7,0-1.1c0-0.1,0-0.2,0-0.3
	c-0.3,0.1-0.7,0.1-1,0.2c0,0,0,0.1,0,0.1c0,0.1,0,0.2,0,0.3c0,0.2,0,0.5,0,0.7c0,0.2,0,0.5,0,0.7c0,0.1,0,0.2,0,0.4H7.6
	c0-0.1,0-0.2,0-0.4c0-0.2,0-0.5,0-0.7c0-0.3,0-0.5,0-0.7c0-0.1,0-0.2,0-0.3l0-0.1c-0.4,0-0.7-0.1-1-0.2c0,0.1,0,0.2,0,0.3
	c0,0.3,0,0.7,0,1.1c0,0.2,0,0.5,0,0.7c0.1,1.7,0.2,3.4,0.3,4.7H6.4c-0.8,0-0.8-0.3-0.9-0.5l-0.1-4.2H5.1c-0.8-0.1-1.5-0.8-1.5-1.6
	c0,0-0.1-1.2-0.2-1.5c-0.3-0.4-0.6-0.7-0.9-1c-0.1-0.1-0.2-0.2-0.2-0.2l0,0c-1.5-1.6-2.4-3.7-2.3-5.9V15.6c-0.1-2.4,0.9-4.7,2.7-6.3
	c0.3-0.2,0.5-0.5,0.7-0.8C3.4,8.3,3.5,7,3.5,7c0-0.8,0.6-1.5,1.4-1.6C5,3.1,5.1,0.1,5.4,0H21c0.3,0.1,0.4,3.1,0.4,5.4
	c0.8,0.1,1.4,0.8,1.5,1.6c0,0,0,0.3,0.1,0.7c0,0.1,0,0.3,0.1,0.4c0,0.2,0.2,0.5,0.3,0.6c0.4,0.4,0.8,0.8,1.1,1.3l0,0
	c0.8,0.9,1.3,1.9,1.7,3.1c0.1,0.1,0.1,0.3,0.2,0.4c0.1,0.2,0.3,0.3,0.6,0.3l0.5,0v1.7c0.4,0.1,0.7,0.5,0.7,0.9v4.1
	c0,0.4-0.3,0.8-0.7,0.9V23.1z M5.3,38L5.3,38c-0.3,0-0.6,0.2-0.6,0.5s0.2,0.5,0.5,0.5h0.1L5.3,38z M24.9,15.6c0-4.3-3.1-7-7.8-7H9.3
	c-4.8,0-7.8,2.7-7.8,7v14c0,4.4,3,7,8,7c0.2,0,0.3,0,0.5,0l0,0h0l5.7,0c2,0.1,3.9-0.2,5.7-1c2.1-1.3,3.4-3.6,3.4-6L24.9,15.6z
	 M21.4,6.1c0,0.4,0,0.7,0,1c0.3-0.1,0.4-0.4,0.3-0.7C21.6,6.3,21.5,6.2,21.4,6.1z M4.7,6.6C4.7,6.8,4.8,7,5,7.1c0-0.2,0-0.6,0-0.9
	C4.8,6.3,4.7,6.4,4.7,6.6L4.7,6.6z M21.8,38.6c0-0.3-0.2-0.5-0.5-0.5l0,1h0C21.5,39.1,21.8,38.8,21.8,38.6z"/>
</svg>
